# xmcd CD database file
#
# Track frame offsets:
#	150
#	11993
#	26003
#	38398
#	52028
#	63518
#	80474
#	92658
#	109630
#	120146
#	138217
#	150250
#	160747
#	174465
#
# Disc length: 2576 seconds
#
# Revision: 14
# Processed by: cddbd v1.5.2PL0 Copyright (c) Steve Scherf et al.
# Submitted via: cdripper 1,0,33,916
#
DISCID=9d0a0e0e
DTITLE=Johnny Cash - Greatest Hits (Steel Box Collection)
DYEAR=2008
DGENRE=Country
TTITLE0=Ring Of Fire
TTITLE1=Orange Blossom Special
TTITLE2=Jackson [With June Carter]
TTITLE3=Don't Take Your Guns To Town
TTITLE4=I Walk The Line
TTITLE5=A Boy Named Sue [Live]
TTITLE6=Folsom Prison Blues [Live]
TTITLE7=(Ghost) Riders In The Sky
TTITLE8=Daddy Sang Bass
TTITLE9=One Piece At A Time
TTITLE10=I'm So Lonesome I Could Cry
TTITLE11=Hey Porter
TTITLE12=It Ain't Me Babe
TTITLE13=The Ballad Of Ira Hayes
EXTD=YEAR: 2008
EXTT0=
EXTT1=
EXTT2=
EXTT3=
EXTT4=
EXTT5=
EXTT6=
EXTT7=
EXTT8=
EXTT9=
EXTT10=
EXTT11=
EXTT12=
EXTT13=
PLAYORDER=
